HIERARCHY
ROOT ui
{
	 OFFSET 0 0 0
	 CHANNELS 3 XPosition YPosition Z Position
	 EndSite
	 {
	 OFFSET 0 -1 0
	 }
}
ROOT li
{
	 OFFSET 0 0 0
	 CHANNELS 3 XPosition YPosition Z Position
	 EndSite
	 {
	 OFFSET 0 -1 0
	 }
}
ROOT ul
{
	 OFFSET 0 0 0
	 CHANNELS 3 XPosition YPosition Z Position
	 EndSite
	 {
	 OFFSET 0 -1 0
	 }
}
ROOT ll
{
	 OFFSET 0 0 0
	 CHANNELS 3 XPosition YPosition Z Position
	 EndSite
	 {
	 OFFSET 0 -1 0
	 }
}
ROOT tt
{
	 OFFSET 0 0 0
	 CHANNELS 3 XPosition YPosition Z Position
	 EndSite
	 {
	 OFFSET 0 -1 0
	 }
}
ROOT tb
{
	 OFFSET 0 0 0
	 CHANNELS 3 XPosition YPosition Z Position
	 EndSite
	 {
	 OFFSET 0 -1 0
	 }
}
ROOT td
{
	 OFFSET 0 0 0
	 CHANNELS 3 XPosition YPosition Z Position
	 EndSite
	 {
	 OFFSET 0 -1 0
	 }
}
ROOT v
{
	 OFFSET 0 0 0
	 CHANNELS 3 XPosition YPosition Z Position
	 EndSite
	 {
	 OFFSET 0 -1 0
	 }
}
ROOT bn
{
	 OFFSET 0 0 0
	 CHANNELS 3 XPosition YPosition Z Position
	 EndSite
	 {
	 OFFSET 0 -1 0
	 }
}
MOTION
Frames: 13
Frame Time: 0.002
3.2772800326347353E-4	3.864530026912689E-4	0		0.4063089599609375	-2.325703125	0		-1.071911376953125	-0.046986598968505856	0		-0.8607464599609375	-2.3149501953125	0		1.4707581787109374	-0.5157728881835938	0		3.08603955078125	0.09626113891601562	0		4.474498046875	0.05593850708007812	0		5.60678076171875	0.010023097038269042	0		-0.10744510650634766	5.93298388671875	0		
0.003180560111999512	0.003148806095123291	0		0.3754171447753906	-2.307237548828125	0		-1.0680601806640626	-0.044213413238525394	0		-0.8539000854492188	-2.30924755859375	0		1.47361669921875	-0.5120545654296875	0		3.1095947265625	0.08449062347412109	0		4.4571240234375	0.04799274826049805	0		5.6159072265625	0.025488515853881837	0		-0.09031278991699218	5.94045263671875	0		
0.002969261884689331	0.002977457046508789	0		0.39122402954101565	-2.303758544921875	0		-1.07233544921875	-0.04727023696899414	0		-0.85621630859375	-2.311352783203125	0		1.4585640869140626	-0.5039502258300781	0		3.09385498046875	0.10656844329833984	0		4.47820556640625	0.06125239944458008	0		5.61569677734375	0.02516429901123047	0		-0.09134098815917968	5.9413046875	0		
-3.05961012840271E-4	-1.2675000727176668E-4	0		0.388892822265625	-2.306893310546875	0		-1.078441650390625	-0.04228666305541992	0		-0.8585264892578125	-2.31345751953125	0		1.4583394775390626	-0.5041538696289063	0		3.074267822265625	0.08873197174072266	0		4.47386865234375	0.05506185531616211	0		5.59136328125	0.019370126724243163	0		-0.10759687805175781	5.9324794921875	0		
-0.0035822880268096924	-0.0032277750968933107	0		0.386589599609375	-2.30902392578125	0		-1.0827398681640625	-0.0463438720703125	0		-0.86182958984375	-2.315541015625	0		1.45811572265625	-0.5043494873046875	0		3.090052734375	0.08816339111328125	0		4.4695087890625	0.047890090942382814	0		5.6001484375	0.018897804260253906	0		-0.1076871109008789	5.93231640625	0		
-7.335850000381469E-4	-4.5423999428749083E-4	0		0.37025469970703123	-2.31285205078125	0		-1.0729783935546875	-0.04769968032836914	0		-0.85904150390625	-2.313752685546875	0		1.4696353759765626	-0.51678857421875	0		3.0946689453125	0.07984427642822266	0		4.4582978515625	0.04788538360595703	0		5.5809599609375	0.02004347610473633	0		-0.09259143829345703	5.94183544921875	0		
0.002114690065383911	0.0023228089809417722	0		0.4010664978027344	-2.3106748046875	0		-1.0691309814453125	-0.04492989349365235	0		-0.855202392578125	-2.30998583984375	0		1.4724981689453125	-0.5130308837890625	0		3.07892626953125	0.10198030853271485	0		4.47322900390625	0.05434844207763672	0		5.6096748046875	0.016196725845336914	0		-0.09272871398925782	5.94167822265625	0		
0.0018999429941177369	0.0021683239936828615	0		0.3899612121582031	-2.304600341796875	0		-1.073408935546875	-0.04798916244506836	0		-0.857479736328125	-2.31208984375	0		1.4691944580078125	-0.5171337890625	0		3.098367919921875	0.08537702178955078	0		4.4730146484375	0.054154212951660154	0		5.60884326171875	0.03400958251953125	0		-0.10809980773925781	5.931845703125	0		
-0.001377573013305664	-9.17398989200592E-4	0		0.4115610046386719	-2.31321826171875	0		-1.08360009765625	-0.04692198181152344	0		-0.8597470092773437	-2.31419287109375	0		1.4572354736328126	-0.5050384216308593	0		3.109300048828125	0.09197701263427735	0		4.46865283203125	0.04706983947753906	0		5.599291015625	0.018028247833251954	0		-0.09307744598388672	5.941375	0		
-0.0015915260314941406	-0.001063315987586975	0		0.385415771484375	-2.309812255859375	0		-1.0838140869140624	-0.04706745910644531	0		-0.8260758666992187	-2.320060302734375	0		1.453958251953125	-0.5081204833984375	0		3.072988037109375	0.08759626770019531	0		4.47258642578125	0.05383549499511719	0		5.59907666015625	0.017880058288574217	0		-0.10847692108154297	5.9325498046875	0		
-0.004867788791656494	-0.004140552997589112	0		0.39608135986328125	-2.316184814453125	0		-1.074050537109375	-0.04842557525634766	0		-0.932001220703125	-2.305954833984375	0		1.46855224609375	-0.5175734252929688	0		3.0839208984375	0.09423091125488281	0		4.4682255859375	0.046797447204589844	0		5.58565380859375	0.00803826904296875	0		-0.10873394012451172	5.93140771484375	0		
0.005130766868591308	0.005507546901702881	0		0.38491183471679685	-2.31508544921875	0		-1.0701990966796875	-0.04565692138671875	0		-0.8542333984375	-2.30875634765625	0		1.4714290771484375	-0.5137634887695313	0		3.10746923828125	0.08261087036132812	0		4.4549951171875	0.045972286224365236	0		5.61377587890625	0.02334704780578613	0		-0.09182667541503907	5.93890673828125	0		
8.374450206756591E-4	0.001461238980293274	0		0.39098382568359374	-2.303343017578125	0		-1.0763001708984374	-0.040675682067871095	0		-0.8564569702148438	-2.31085595703125	0		1.4594835205078125	-0.5016259460449218	0		3.091729736328125	0.10485071563720703	0		4.471951171875	0.05353070068359375	0		5.6077802734375	0.03340730285644531	0		-0.09406418609619141	5.9408154296875	0		
